# xmcd
#
# Track frame offsets:
#	150
#	16372
#	32622
#	48322
#	68482
#	82530
#	97085
#	117225
#	135232
#	146540
#	159602
#	174247
#	189095
#	205670
#	226057
#
# Disc length: 3231 seconds
# Revision: 7
# Processed by: cddbd v1.5.2PL0 Copyright (c) Steve Scherf et al.
# Submitted via: dBpowerAMP V12.0
#
DISCID=aa0c9d0f
DTITLE=Olivia Newton John - Olivia's Greatest Hits [dBP-LITE02-1-FLAC@]
DYEAR=1983
DGENRE=Pop
TTITLE0=Physical
TTITLE1=Deeper Than The Night
TTITLE2=A Little More Love
TTITLE3=Magic
TTITLE4=Heart Attack
TTITLE5=Make A Move On Me
TTITLE6=Tied Up
TTITLE7=Suddenly
TTITLE8=Changes
TTITLE9=If Not For You
TTITLE10=Banks Of The Ohio
TTITLE11=Take Me Home Country Roads
TTITLE12=Sam
TTITLE13=The Promise (The Dolphin Song)
TTITLE14=I Honestly Love You
EXTD=
EXTT0=
EXTT1=
EXTT2=
EXTT3=
EXTT4=
EXTT5=
EXTT6=
EXTT7=
EXTT8=
EXTT9=
EXTT10=
EXTT11=
EXTT12=
EXTT13=
EXTT14=
PLAYORDER=
